<svg width="16" height="16" viewBox="0 0 16 16" fill="none" xmlns="http://www.w3.org/2000/svg">
<path d="M8.02299 8.45408C7.99895 8.39378 7.99312 8.32777 8.00621 8.2642C8.0193 8.20062 8.05073 8.14228 8.09663 8.09639C8.14253 8.05049 8.20087 8.01905 8.26444 8.00597C8.32801 7.99288 8.39403 7.99871 8.45432 8.02274L14.4543 10.3561C14.5186 10.3812 14.5736 10.4257 14.6115 10.4834C14.6495 10.5411 14.6685 10.6092 14.6661 10.6782C14.6637 10.7472 14.6399 10.8138 14.598 10.8687C14.5562 10.9236 14.4982 10.9642 14.4323 10.9847L12.1363 11.6967C12.0327 11.7288 11.9385 11.7856 11.8618 11.8623C11.7852 11.9389 11.7283 12.0331 11.6963 12.1367L10.985 14.4321C10.9644 14.498 10.9239 14.5559 10.869 14.5978C10.814 14.6397 10.7475 14.6635 10.6785 14.6659C10.6094 14.6683 10.5414 14.6492 10.4837 14.6113C10.426 14.5733 10.3815 14.5184 10.3563 14.4541L8.02299 8.45408Z" stroke="#B4B8BF" stroke-linecap="round" stroke-linejoin="round"/>
<path d="M14 7.33333V3.33333C14 2.97971 13.8595 2.64057 13.6095 2.39052C13.3594 2.14048 13.0203 2 12.6667 2H3.33333C2.97971 2 2.64057 2.14048 2.39052 2.39052C2.14048 2.64057 2 2.97971 2 3.33333V12.6667C2 13.0203 2.14048 13.3594 2.39052 13.6095C2.64057 13.8595 2.97971 14 3.33333 14H7.33333" stroke="#B4B8BF" stroke-linecap="round" stroke-linejoin="round"/>
</svg>
