<svg width="16" height="16" viewBox="0 0 16 16" fill="none" xmlns="http://www.w3.org/2000/svg">
<path d="M5.73616 9.20251L10.3118 4.62686C11.1484 3.79032 11.1484 2.43401 10.3118 1.59747C9.47528 0.760926 8.11897 0.760926 7.28242 1.59747L1.22363 7.65625M10.3118 4.62686L5.79928 9.13949M10.3118 4.62686C11.1484 3.79032 12.5047 3.7904 13.3412 4.62695L13.3727 4.6585C14.2093 5.49504 14.2093 6.85135 13.3727 7.68789L7.89314 13.1675C7.61429 13.4464 7.61429 13.8984 7.89314 14.1773L9.0183 15.3025M8.79714 3.11226L4.31614 7.59323C3.47961 8.42975 3.47961 9.78606 4.31614 10.6226C5.15269 11.4591 6.509 11.4591 7.34554 10.6226L11.8265 6.14165" stroke="currentColor" stroke-linecap="round"/>
</svg>
